<?xml version="1.0" standalone="no"?>
<!DOCTYPE svg PUBLIC "-//W3C//DTD SVG 20010904//EN"
 "http://www.w3.org/TR/2001/REC-SVG-20010904/DTD/svg10.dtd">
<svg version="1.0" xmlns="http://www.w3.org/2000/svg"
 width="500.000000pt" height="500.000000pt" viewBox="0 0 500.000000 500.000000"
 preserveAspectRatio="xMidYMid meet">

<g transform="translate(0.000000,500.000000) scale(0.100000,-0.100000)"
fill="#000000" stroke="none">
<path d="M3333 4409 c-6 -8 -55 -86 -109 -174 -53 -88 -158 -261 -234 -385
-151 -248 -364 -599 -427 -700 -38 -63 -42 -66 -99 -80 l-59 -15 -33 -85 c-70
-183 -84 -211 -108 -221 -13 -4 -24 -12 -24 -16 0 -5 -70 -6 -155 -4 -113 2
-159 0 -170 -9 -10 -9 -15 -32 -15 -76 0 -52 3 -64 16 -64 14 0 16 -8 10 -52
-11 -80 -17 -87 -71 -77 -25 5 -109 25 -187 45 -79 20 -152 38 -163 41 -35 8
-43 50 -49 273 -5 204 -21 335 -45 364 -20 24 -6 71 34 112 l40 42 39 -20 c48
-25 81 -17 101 22 9 17 20 30 25 30 5 0 11 9 15 19 3 11 16 21 28 23 19 3 23
11 27 65 3 34 11 68 18 75 6 6 12 22 12 33 0 17 9 25 39 33 60 18 83 70 65
139 -5 19 -9 21 -26 12 -11 -6 -22 -8 -25 -6 -2 3 5 10 16 17 34 17 24 25 -26
22 -42 -3 -56 2 -113 39 -73 48 -142 70 -182 58 -15 -4 -44 -5 -66 -2 -50 7
-93 -15 -124 -64 -20 -34 -23 -53 -28 -184 -5 -140 -6 -147 -34 -187 -15 -23
-47 -53 -70 -66 -107 -64 -220 -200 -266 -323 -51 -133 -84 -362 -100 -678 -5
-99 -12 -194 -15 -212 -6 -25 -3 -35 14 -49 13 -11 21 -30 21 -49 0 -17 9 -48
19 -69 19 -36 51 -122 51 -136 0 -3 -33 -7 -72 -8 -99 -4 -195 -20 -222 -37
-25 -17 -46 -55 -46 -84 0 -10 9 -30 20 -44 19 -24 20 -40 20 -516 l0 -491
-52 0 c-56 0 -96 -14 -68 -24 8 -2 74 -10 145 -16 175 -15 2709 -16 3170 -1
372 12 707 30 715 37 10 11 -25 22 -89 28 -130 13 -531 26 -803 26 l-278 0 0
29 c0 19 6 30 18 33 16 4 20 51 46 514 15 280 32 516 37 525 17 33 101 98 146
113 129 44 176 -11 187 -214 3 -58 11 -181 16 -275 6 -93 14 -266 19 -384 7
-177 12 -217 25 -226 11 -8 14 -21 10 -46 -7 -41 12 -62 48 -57 20 3 23 9 26
56 2 37 7 52 18 52 10 0 14 13 14 48 0 26 11 250 26 497 24 425 27 453 50 500
29 62 72 92 150 106 78 14 108 30 112 57 3 20 9 22 62 22 44 0 59 4 64 16 3 9
6 140 6 292 0 297 -3 316 -50 339 -30 14 -121 29 -237 38 -78 7 -83 9 -83 30
0 36 -26 49 -114 55 -72 4 -81 7 -84 26 -2 17 9 26 63 49 189 80 427 316 480
476 22 66 22 153 0 207 -22 55 -92 116 -164 143 -31 11 -102 29 -159 40 -123
22 -168 42 -188 81 -10 19 -11 27 -4 23 9 -6 10 1 5 23 -8 40 4 63 141 260 63
89 114 169 114 176 0 29 -31 34 -235 40 -115 3 -289 9 -385 12 -141 5 -178 3
-187 -7z m524 -15 c224 -6 288 -13 273 -27 -3 -3 -178 -1 -389 5 -314 8 -386
7 -396 -4 -7 -7 -139 -222 -295 -478 -334 -550 -463 -758 -485 -785 -38 -46
-2 22 89 169 51 83 146 239 211 346 257 425 320 529 380 625 34 55 68 111 75
125 7 14 18 29 24 33 6 5 67 6 136 3 69 -3 238 -9 377 -12z m-199 -41 c-38 -2
-98 -2 -135 0 -38 2 -7 3 67 3 74 0 105 -1 68 -3z m259 -10 c-20 -2 -52 -2
-70 0 -17 2 0 4 38 4 39 0 53 -2 32 -4z m-617 -93 c-6 -11 -13 -20 -16 -20 -2
0 0 9 6 20 6 11 13 20 16 20 2 0 0 -9 -6 -20z m-30 -50 c-6 -11 -13 -20 -16
-20 -2 0 0 9 6 20 6 11 13 20 16 20 2 0 0 -9 -6 -20z m-23 -37 c-71 -118 -280
-461 -359 -589 -58 -94 -119 -196 -137 -225 -55 -93 -132 -214 -144 -224 -6
-5 -2 3 8 19 9 16 117 192 237 390 303 496 389 636 395 636 2 0 2 -3 0 -7z
m187 -145 c204 -665 235 -771 230 -780 -17 -27 -24 -9 -88 217 -24 88 -81 283
-125 433 -45 151 -81 276 -81 278 0 2 4 4 9 4 4 0 29 -69 55 -152z m-1798
-175 c33 -19 77 -44 99 -54 35 -16 37 -19 14 -19 -14 0 -56 19 -93 41 -69 42
-130 58 -163 44 -10 -4 -33 -7 -51 -6 -42 3 -99 -38 -119 -88 -9 -20 -19 -76
-23 -126 l-7 -90 -1 105 c-1 83 2 114 17 146 32 69 55 80 169 82 98 1 101 0
158 -35z m81 -194 c18 -9 23 -21 23 -49 0 -20 -7 -45 -15 -56 -8 -11 -14 -41
-15 -71 0 -46 -3 -53 -20 -53 -12 0 -25 -10 -32 -25 -6 -14 -15 -25 -19 -25
-5 0 -15 -13 -24 -30 -19 -36 -54 -40 -102 -11 l-32 20 -26 -34 c-45 -60 -60
-62 -105 -17 -21 22 -59 52 -84 67 -25 15 -46 29 -46 31 0 2 16 24 35 50 19
25 35 50 35 55 0 5 11 9 25 9 32 0 81 24 93 46 8 14 12 12 28 -15 26 -44 36
-39 12 7 -25 45 -19 85 14 103 33 18 61 -21 53 -72 -9 -50 10 -59 31 -15 10
20 30 40 46 47 35 14 68 54 68 83 1 19 2 19 17 -6 9 -15 27 -32 40 -39z m-469
-286 c34 -16 142 -117 142 -133 0 -4 -21 13 -47 36 -26 24 -77 59 -113 79 -47
25 -58 35 -42 35 13 0 40 -8 60 -17z m-26 -29 c28 -14 75 -49 104 -76 78 -74
95 -125 99 -308 4 -136 3 -140 -6 -55 -7 74 -33 195 -42 195 -1 0 -1 -57 1
-127 2 -87 0 -123 -7 -113 -5 8 -13 12 -16 8 -4 -3 8 -34 25 -68 17 -34 30
-66 28 -72 -4 -12 -92 113 -133 190 -16 28 -30 50 -32 48 -7 -7 63 -137 116
-216 28 -41 51 -83 51 -93 0 -10 -12 -22 -27 -29 l-28 -11 25 -7 c25 -6 25 -6
-5 -12 -16 -4 -48 -23 -70 -42 l-40 -36 68 35 c95 48 101 47 92 -17 -8 -58 4
-60 14 -3 9 53 26 38 26 -22 0 -42 -5 -55 -25 -72 -33 -28 -86 -51 -118 -51
l-26 0 26 28 c32 35 58 74 58 87 0 5 -24 -16 -53 -47 -86 -93 -121 -89 -152
16 -35 117 -85 433 -85 536 0 39 -4 60 -11 60 -12 0 -8 -109 6 -201 4 -27 -1
-21 -30 36 -19 38 -35 64 -35 58 0 -17 43 -130 68 -179 11 -21 23 -65 27 -96
l7 -58 -40 38 c-23 20 -57 64 -76 96 -20 33 -36 53 -36 45 0 -19 64 -152 91
-190 12 -17 16 -29 9 -29 -18 0 -68 57 -96 109 -14 25 -23 38 -20 29 3 -9 10
-35 16 -57 17 -63 70 -183 97 -218 l24 -33 -43 -1 -43 0 65 -32 c36 -18 80
-37 98 -44 18 -6 32 -16 32 -23 0 -6 -46 -33 -102 -60 -110 -53 -115 -58 -28
-35 72 19 130 19 159 -1 23 -17 22 -17 -61 -49 -108 -42 -178 -77 -250 -126
-62 -42 -60 -43 -74 34 l-6 37 39 0 c22 0 47 6 57 13 15 11 8 12 -46 9 -78 -5
-96 8 -80 60 6 18 13 110 16 203 18 493 80 716 246 887 41 43 81 78 88 78 7 0
36 -12 64 -26z m2488 -299 c-7 -8 -16 -15 -20 -15 -4 0 -16 34 -28 76 -17 61
-18 81 -9 101 11 24 13 20 40 -61 23 -69 26 -90 17 -101z m-632 146 c3 -8 0
-11 -6 -7 -13 8 -34 -32 -108 -199 -50 -114 -54 -120 -83 -121 -17 -1 -51 -5
-75 -8 l-46 -7 51 108 c70 148 89 193 83 193 -3 0 -39 -69 -79 -154 l-74 -154
-68 -11 c-299 -47 -363 -57 -363 -52 0 14 95 258 105 269 6 7 48 21 93 32 45
11 117 37 159 59 95 47 125 54 183 43 33 -6 64 -4 115 9 80 20 107 20 113 0z
m662 -188 c5 -21 16 -59 24 -85 15 -47 15 -48 -7 -48 -18 0 -25 10 -39 60 -21
70 -22 82 -6 98 16 16 16 17 28 -25z m276 -158 c17 -13 -45 -14 -528 -15
l-548 0 0 -128 c0 -148 -13 -201 -63 -252 -45 -46 -86 -61 -188 -67 l-89 -6 0
-69 c0 -61 -2 -69 -17 -66 -14 3 -19 15 -21 63 -4 86 7 97 99 102 100 5 133
17 173 64 45 53 57 103 58 234 0 127 3 142 26 148 9 3 256 5 548 6 452 1 533
-1 550 -14z m-1131 -4 c-6 -5 -100 -24 -210 -41 -110 -18 -247 -40 -305 -49
-58 -10 -107 -16 -109 -14 -12 10 29 19 251 54 134 21 263 43 288 48 62 12 96
13 85 2z m-7 -73 c-3 -8 -49 -19 -119 -30 -63 -9 -271 -39 -463 -67 -192 -28
-359 -51 -370 -50 -54 1 38 20 295 59 151 23 355 54 454 70 216 34 208 33 203
18z m1385 -9 c37 -5 82 -16 100 -24 25 -12 27 -14 7 -10 -93 20 -135 26 -221
32 -54 3 -96 10 -93 14 5 9 97 4 207 -12z m-2214 -46 l-107 -4 -7 -32 -8 -32
-7 30 c-3 17 -5 33 -3 38 2 4 57 6 121 5 l117 -2 -106 -3z m826 -115 c-20
-121 -89 -177 -220 -178 -66 0 -105 -19 -105 -49 0 -15 -12 -20 -72 -26 -49
-4 -74 -3 -76 4 -2 6 -11 11 -20 12 -11 0 -12 2 -4 6 19 7 14 22 -6 16 -10 -2
-37 2 -60 10 -23 8 -44 11 -47 7 -7 -11 12 -23 25 -15 5 3 7 0 4 -9 -5 -12 -9
-13 -25 -3 -10 6 -19 18 -19 25 0 8 -9 11 -27 7 -35 -6 -65 3 -57 17 5 7 1 9
-9 5 -11 -4 -17 -1 -17 8 0 8 -7 15 -15 15 -8 0 -15 7 -15 15 0 15 -16 18 -77
17 -28 -1 -33 2 -33 21 0 25 -40 18 630 103 107 13 200 26 205 28 6 3 18 5 28
5 17 1 18 -4 12 -41z m-916 -115 c1 -27 -3 -33 -20 -33 -16 0 -19 4 -14 18 4
9 9 33 12 52 5 28 8 31 14 15 4 -11 8 -35 8 -52z m-403 40 c69 -19 79 -31 72
-89 -3 -27 -6 -29 -43 -26 -58 5 -110 17 -107 25 1 4 2 30 2 57 0 28 3 50 6
50 3 0 35 -8 70 -17z m146 -47 c4 -6 8 -26 8 -43 0 -30 -3 -33 -30 -33 -26 0
-30 4 -30 28 0 15 -3 37 -6 50 -6 21 -4 22 22 16 16 -4 32 -12 36 -18z m80
-20 c11 -16 10 -64 -2 -87 -6 -10 -21 -19 -33 -19 -20 0 -22 5 -24 65 l-2 65
27 -7 c15 -3 30 -11 34 -17z m153 -20 c136 -25 179 -38 190 -55 8 -14 4 -14
-40 5 -20 8 -39 13 -41 11 -2 -2 27 -16 64 -31 38 -14 78 -33 88 -41 18 -14
18 -14 -4 -15 -13 0 -52 10 -87 22 -58 20 -69 21 -122 10 -77 -16 -105 -15
-129 3 -10 8 -27 15 -36 15 -15 0 -18 9 -18 50 0 28 1 50 3 50 1 0 61 -11 132
-24z m395 -66 c0 -5 -2 -10 -4 -10 -3 0 -8 5 -11 10 -3 6 -1 10 4 10 6 0 11
-4 11 -10z m-750 -45 l55 5 -3 -82 c-2 -46 -5 -84 -6 -85 -6 -6 -145 34 -159
45 -8 7 -13 21 -10 32 3 11 -4 36 -16 55 -11 20 -21 37 -21 39 0 2 24 -1 53
-6 28 -5 77 -6 107 -3z m136 -6 c-27 -4 -53 -14 -57 -21 -5 -7 -7 -34 -5 -60
1 -26 -1 -45 -6 -42 -12 7 -10 92 2 115 9 15 21 19 63 18 l52 -1 -49 -9z m834
-4 c0 -10 -10 -15 -32 -16 -46 0 -159 -9 -180 -13 -11 -3 -18 2 -18 10 0 8 6
14 13 14 22 1 132 12 134 14 1 1 21 3 43 4 30 2 40 -1 40 -13z m-570 -5 c13
-8 13 -10 -2 -10 -9 0 -20 5 -23 10 -8 13 5 13 25 0z m330 -17 c0 -7 -9 -13
-20 -13 -19 0 -26 11 -15 22 10 10 35 4 35 -9z m-50 -4 c0 -5 -8 -9 -17 -10
-10 -1 -36 -2 -58 -4 -242 -19 -377 -27 -382 -21 -15 14 -12 15 277 35 143 10
180 10 180 0z m290 -24 c0 -14 -4 -25 -9 -25 -5 0 -125 -7 -267 -15 -143 -8
-301 -17 -351 -19 -51 -3 -93 -2 -93 3 0 4 -35 6 -77 3 -43 -2 -75 -1 -71 2 8
9 229 30 473 46 99 6 214 15 255 19 136 15 140 14 140 -14z m0 -69 c0 -23 -1
-23 -157 -30 -87 -3 -203 -9 -257 -13 -74 -4 -97 -3 -92 5 5 9 -31 12 -136 13
-79 0 -138 2 -133 4 6 2 102 9 215 15 113 7 252 16 310 20 58 4 138 8 178 8
69 2 72 1 72 -22z m44 9 c-4 -8 -10 -15 -15 -15 -5 0 -9 7 -9 15 0 8 7 15 15
15 9 0 12 -6 9 -15z m854 8 c-81 -2 -216 -2 -300 0 -84 1 -18 3 147 3 165 0
234 -2 153 -3z m-1720 -50 c-10 -2 -28 -2 -40 0 -13 2 -5 4 17 4 22 1 32 -1
23 -4z m870 -30 c-4 -52 -28 -56 -28 -4 0 30 4 41 16 41 11 0 14 -9 12 -37z
m-827 -34 c256 -86 411 -147 441 -176 15 -14 32 -40 37 -57 8 -26 8 -28 -2
-12 -36 59 -126 100 -479 222 -155 53 -202 74 -166 74 8 0 85 -23 169 -51z
m779 21 l0 -30 -83 0 c-46 0 -140 -2 -208 -5 -68 -2 -113 -1 -99 3 14 4 26 13
28 20 2 11 -36 13 -200 9 -112 -3 -187 -3 -168 -1 50 7 527 31 638 33 l92 1 0
-30z m-1324 -96 c27 -16 129 -47 276 -84 128 -32 226 -59 218 -59 -8 -1 -113
23 -232 53 -235 59 -301 86 -349 147 -41 52 -36 61 7 11 20 -23 55 -54 80 -68z
m-157 -14 c12 -22 34 -55 48 -72 24 -31 23 -31 -8 3 -19 19 -43 48 -54 63
l-21 29 -61 -52 c-60 -49 -81 -62 -68 -41 9 15 125 110 134 110 4 0 17 -18 30
-40z m1231 -169 c5 -20 16 -160 25 -311 8 -151 20 -340 25 -420 5 -80 10 -162
10 -184 l0 -39 -32 25 c-38 29 -47 57 -24 70 17 10 24 98 7 98 -5 0 -12 98
-15 218 -12 365 -25 549 -41 589 l-16 37 26 -24 c14 -13 29 -40 35 -59z m758
67 c-3 -7 -50 -147 -104 -311 l-99 -299 -3 298 c-1 163 -1 299 1 300 6 7 113
22 161 23 35 1 47 -2 44 -11z m-467 -175 c0 -93 2 -186 5 -209 8 -62 -12 -183
-57 -347 -23 -81 -43 -146 -45 -144 -5 5 24 487 41 677 8 91 15 171 15 178 0
6 9 12 20 12 19 0 20 -7 21 -167z m151 -135 c3 -280 2 -311 -18 -408 l-22
-105 -1 408 c-1 394 0 407 18 407 18 0 19 -13 23 -302z m367 276 c11 -14 22
-33 25 -42 5 -15 41 -552 62 -900 5 -92 9 -115 23 -120 21 -7 30 -22 24 -39
-4 -10 -40 -13 -159 -13 l-154 0 0 90 0 90 -40 0 -40 0 0 142 0 143 112 337
c62 186 116 338 120 338 3 0 16 -12 27 -26z m-1319 -4 c20 -6 21 -8 5 -8 -11
0 -29 3 -40 8 -25 11 1 11 35 0z m-259 -21 c57 -20 80 -47 77 -94 l-3 -40
-462 -3 -463 -2 0 38 c0 46 22 79 64 98 41 18 734 20 787 3z m316 5 c-3 -3
-12 -4 -19 -1 -8 3 -5 6 6 6 11 1 17 -2 13 -5z m-1138 -17 c-25 -19 -39 -52
-39 -92 l0 -36 -42 3 c-42 3 -43 4 -46 41 -5 59 39 94 118 96 22 0 23 -1 9
-12z m1178 7 c-3 -3 -12 -4 -19 -1 -8 3 -5 6 6 6 11 1 17 -2 13 -5z m1366
-131 c4 -75 7 -277 7 -448 l0 -312 -25 5 c-14 2 -25 5 -25 6 0 0 -11 165 -25
366 -14 201 -25 386 -25 413 0 46 1 47 30 47 26 0 31 5 37 30 12 60 20 27 26
-107z m-1326 121 c-3 -3 -12 -4 -19 -1 -8 3 -5 6 6 6 11 1 17 -2 13 -5z m58
-14 c13 -5 14 -9 5 -9 -8 0 -24 4 -35 9 -13 5 -14 9 -5 9 8 0 24 -4 35 -9z
m115 -50 c6 -11 9 -20 7 -20 -2 0 -12 9 -22 20 -10 11 -13 20 -7 20 6 0 16 -9
22 -20z m529 -368 c0 -245 -3 -362 -9 -352 -12 18 -10 731 1 724 5 -3 8 -170
8 -372z m151 -18 c0 -249 -4 -384 -10 -384 -6 0 -10 137 -10 391 0 257 3 388
10 384 6 -4 10 -145 10 -391z m-1016 326 c54 -11 100 -20 102 -20 2 0 4 -5 4
-11 0 -14 -173 -487 -206 -562 -14 -32 -23 -68 -21 -79 4 -12 -7 -48 -26 -87
l-32 -66 -3 398 -2 398 27 29 c16 16 35 27 43 25 8 -3 59 -14 114 -25z m326
27 c0 -2 -14 -16 -32 -33 -18 -16 -26 -20 -18 -9 19 27 50 53 50 42z m-1346
-87 c14 0 16 -19 15 -177 0 -98 -3 -172 -6 -165 -2 6 -11 12 -19 12 -12 0 -14
-51 -14 -325 0 -210 -4 -325 -10 -325 -7 0 -10 176 -10 508 1 424 3 504 14
490 7 -10 21 -18 30 -18z m1434 -190 c0 -19 -6 8 -14 60 -7 52 -12 111 -12
130 0 19 6 -8 14 -60 7 -52 12 -111 12 -130z m-658 -310 c0 -313 -3 -480 -10
-480 -7 0 -10 167 -10 480 0 313 3 480 10 480 7 0 10 -167 10 -480z m-830 -75
c0 -243 -4 -375 -10 -375 -6 0 -10 132 -10 375 0 243 4 375 10 375 6 0 10
-132 10 -375z m618 3 l-3 -373 -262 -3 -263 -2 0 375 0 375 265 0 265 0 -2
-372z m182 -3 l0 -376 -57 3 -58 3 0 93 c0 50 1 218 3 372 l2 280 55 0 55 0 0
-375z m697 293 c-2 -13 -4 -5 -4 17 -1 22 1 32 4 23 2 -10 2 -28 0 -40z m40
-293 c-5 -13 -26 130 -32 210 -3 33 4 2 15 -70 11 -71 18 -134 17 -140z m366
71 c5 -143 -5 -175 -53 -168 -16 2 -30 9 -30 15 0 16 74 289 77 280 1 -4 3
-61 6 -127z m-580 -100 c-4 -6 35 -7 98 -3 60 3 96 2 84 -3 -11 -5 -36 -9 -55
-9 -19 -1 -52 -4 -72 -7 -31 -5 -38 -11 -38 -30 0 -12 7 -29 15 -38 20 -19 19
-65 -1 -105 l-16 -32 -46 27 c-93 53 -161 106 -155 119 3 10 11 11 30 4 13 -5
26 -9 27 -9 4 0 30 61 32 76 1 5 19 50 40 99 l38 89 12 -84 c7 -47 10 -89 7
-94z m-1254 17 c-1 -135 -1 -137 -14 -89 -8 28 -11 54 -8 59 7 12 10 37 12
110 0 31 3 57 6 57 3 0 5 -62 4 -137z m1985 21 c-2 -91 -5 -100 -28 -91 -15 6
-15 7 19 155 10 40 12 23 9 -64z m-449 -23 c-6 -5 -19 -11 -30 -13 -13 -2 -22
-14 -26 -33 l-7 -30 -1 28 c0 15 -1 30 -2 35 0 7 34 19 61 21 8 1 10 -2 5 -8z
m-544 -61 l64 -19 -1 -42 c-1 -50 -22 -69 -73 -69 -35 0 -125 37 -119 49 2 3
11 27 22 54 10 26 24 47 31 47 7 0 41 -9 76 -20z m1003 -26 c9 -3 13 -10 10
-15 -9 -14 -41 -10 -48 6 -6 16 10 20 38 9z m-482 -54 c-4 -61 -36 -90 -99
-90 -24 0 -58 8 -74 17 -25 15 -29 23 -29 60 l0 43 48 1 c26 1 61 5 77 9 17 5
41 7 55 7 23 -2 25 -5 22 -47z m392 29 c64 -12 66 -14 66 -42 0 -19 -4 -28
-12 -24 -7 2 -46 10 -86 17 -45 8 -68 16 -60 22 7 4 11 8 8 9 -49 9 -61 9 -54
-2 5 -9 0 -10 -17 -6 -13 4 -27 7 -31 7 -5 0 -8 10 -8 21 0 21 3 22 64 16 35
-3 93 -11 130 -18z m596 -64 c0 -52 -1 -55 -25 -55 -23 0 -25 3 -25 49 0 49 4
54 43 60 4 0 7 -24 7 -54z m-1400 13 c0 -6 -7 -5 -15 2 -8 7 -15 17 -15 22 0
6 7 5 15 -2 8 -7 15 -17 15 -22z m449 5 c6 -10 11 -14 11 -9 0 5 7 3 15 -4 8
-7 15 -20 15 -29 -1 -13 -3 -13 -15 3 -11 14 -15 16 -15 5 0 -8 19 -24 41 -37
22 -13 38 -26 35 -29 -15 -15 -116 76 -116 103 0 20 17 17 29 -3z m-657 -22
c51 -30 97 -35 138 -14 l35 18 79 -47 c43 -26 87 -50 97 -53 10 -4 19 -13 19
-21 0 -12 -36 -14 -220 -14 l-220 0 0 53 c0 31 6 61 16 75 18 27 15 26 56 3z
m238 -2 c0 -5 -4 -9 -10 -9 -5 0 -10 7 -10 16 0 8 5 12 10 9 6 -3 10 -10 10
-16z m690 6 c138 -22 153 -26 143 -36 -6 -6 -37 -3 -79 6 -38 9 -90 19 -117
22 -26 3 -50 10 -53 14 -7 12 -5 12 106 -6z m-652 -33 c2 -7 -2 -10 -12 -6 -9
3 -16 11 -16 16 0 13 23 5 28 -10z m456 2 c8 -21 8 -24 -3 -24 -5 0 -11 9 -14
20 -6 24 8 27 17 4z m-59 -26 c52 -37 97 -43 105 -14 6 21 50 55 50 38 0 -6
-9 -14 -20 -17 -11 -3 -20 -13 -20 -21 0 -8 5 -12 10 -9 6 3 10 -3 10 -14 0
-24 -4 -25 -32 -10 -11 6 -22 8 -25 5 -5 -5 40 -26 85 -40 18 -6 22 -3 22 14
0 19 4 21 28 16 15 -4 49 -11 75 -15 56 -9 88 -34 69 -53 -10 -10 -92 -14
-328 -16 -278 -3 -315 -1 -320 12 -6 16 11 134 21 144 3 3 20 -3 38 -13 44
-26 119 -25 155 3 15 11 28 21 29 21 1 1 23 -13 48 -31z m95 -4 c0 -8 -4 -14
-10 -14 -5 0 -10 9 -10 21 0 11 5 17 10 14 6 -3 10 -13 10 -21z m140 6 c0 -5
-6 -10 -12 -10 -7 0 -24 -3 -38 -5 -22 -5 -21 -3 5 9 36 18 45 19 45 6z m-565
-10 c3 -5 1 -10 -4 -10 -6 0 -11 5 -11 10 0 6 2 10 4 10 3 0 8 -4 11 -10z
m625 -10 c-14 -4 -36 -8 -50 -8 l-25 0 25 8 c14 4 36 8 50 8 l25 0 -25 -8z
m1288 -12 c-3 -7 -12 -14 -21 -16 -12 -2 -15 1 -11 12 7 19 38 22 32 4z
m-1410 -21 c2 -10 -3 -17 -12 -17 -10 0 -16 9 -16 21 0 24 23 21 28 -4z m784
-19 c2 -12 10 -23 18 -26 12 -4 13 -2 3 9 -17 18 -16 29 2 29 9 0 15 -9 15
-25 0 -18 5 -25 20 -25 16 0 20 -7 20 -30 0 -28 -2 -30 -40 -30 -39 0 -40 1
-40 34 0 19 -4 38 -10 41 -13 8 -13 45 -1 45 5 0 11 -10 13 -22z m-1464 -30
c150 -1 188 -3 137 -8 -38 -4 -139 -8 -222 -9 -134 -1 -153 1 -153 15 0 11 5
14 16 10 9 -3 109 -7 222 -8z m1442 -38 c0 -25 -4 -30 -25 -30 -21 0 -25 5
-25 30 0 25 4 30 25 30 21 0 25 -5 25 -30z m-575 -18 c-9 -10 -645 -15 -645
-5 0 4 132 8 292 9 174 0 305 4 323 10 28 10 46 2 30 -14z"/>
<path d="M1184 3211 c-39 -18 -84 -65 -97 -103 -11 -31 10 -19 23 13 7 16 29
42 48 57 30 23 45 27 100 27 60 0 62 0 36 12 -40 17 -62 16 -110 -6z"/>
<path d="M1290 2682 c-29 -14 -70 -44 -70 -54 0 -5 17 3 37 17 22 14 52 25 71
25 20 0 31 4 27 10 -7 11 -42 12 -65 2z"/>
<path d="M1245 2550 c-16 -17 -24 -30 -19 -30 13 0 59 48 52 55 -2 3 -17 -9
-33 -25z"/>
<path d="M853 2347 c5 -18 65 -35 148 -43 90 -8 87 4 -4 17 -37 5 -85 15 -107
23 -29 10 -40 11 -37 3z"/>
<path d="M2367 2473 c-11 -10 -8 -43 3 -43 6 0 10 11 10 25 0 26 -2 29 -13 18z"/>
<path d="M2400 2460 c0 -11 4 -20 9 -20 6 0 9 9 8 20 -1 11 -5 20 -9 20 -4 0
-8 -9 -8 -20z"/>
<path d="M2430 2460 c0 -11 7 -20 15 -20 8 0 15 9 15 20 0 11 -7 20 -15 20 -8
0 -15 -9 -15 -20z"/>
<path d="M2330 2450 c0 -11 5 -20 10 -20 6 0 10 9 10 20 0 11 -4 20 -10 20 -5
0 -10 -9 -10 -20z"/>
<path d="M721 1454 c0 -11 3 -14 6 -6 3 7 2 16 -1 19 -3 4 -6 -2 -5 -13z"/>
<path d="M3892 3890 c9 -28 82 -58 168 -70 109 -14 197 -43 252 -82 33 -24 38
-26 23 -8 -30 35 -128 77 -208 90 -154 25 -178 32 -209 58 -18 15 -29 20 -26
12z"/>
</g>
</svg>
